# MagicaVoxel @ Ephtracy

# group
o 

# material
mtllib Ground-1.mtl
usemtl palette

# normals
vn -1 0 0
vn 1 0 0
vn 0 0 1
vn 0 0 -1
vn 0 -1 0
vn 0 1 0

# texcoords
vt 0.0683594 0.5
vt 0.748047 0.5
vt 0.880859 0.5

# verts
v -5 0 5
v -5 0 -5
v -5 0.6 5
v -5 0.6 -5
v 5 0 5
v 5 0 -5
v 5 0.6 5
v 5 0.6 -5
v -5 0 5
v -5 0.6 5
v 5 0 5
v 5 0.6 5
v -5 0 -5
v -5 0.6 -5
v 5 0 -5
v 5 0.6 -5
v -5 0 5
v 5 0 5
v -2 0 2
v -1.4 0 2
v 1.4 0 2
v 2 0 2
v -1.4 0 1.9
v 1.4 0 1.9
v -1.4 0 -1.9
v 1.4 0 -1.9
v -2 0 -2
v -1.4 0 -2
v 1.4 0 -2
v 2 0 -2
v -5 0 -5
v 5 0 -5
v -5 0.6 5
v 5 0.6 5
v -5 0.6 -5
v 5 0.6 -5

# faces
f 3/2/1 2/2/1 1/2/1
f 4/2/1 2/2/1 3/2/1
f 5/2/2 6/2/2 7/2/2
f 7/2/2 6/2/2 8/2/2
f 11/2/3 10/2/3 9/2/3
f 12/2/3 10/2/3 11/2/3
f 13/2/4 14/2/4 15/2/4
f 15/2/4 14/2/4 16/2/4
f 19/2/5 18/2/5 17/2/5
f 20/2/5 18/2/5 19/2/5
f 21/2/5 18/2/5 20/2/5
f 22/2/5 18/2/5 21/2/5
f 23/3/5 20/3/5 19/3/5
f 23/2/5 21/2/5 20/2/5
f 24/3/5 22/3/5 21/3/5
f 24/2/5 21/2/5 23/2/5
f 25/3/5 23/3/5 19/3/5
f 25/3/5 24/3/5 23/3/5
f 26/3/5 22/3/5 24/3/5
f 26/3/5 24/3/5 25/3/5
f 27/2/5 19/2/5 17/2/5
f 27/3/5 25/3/5 19/3/5
f 28/2/5 26/2/5 25/2/5
f 28/3/5 25/3/5 27/3/5
f 29/3/5 22/3/5 26/3/5
f 29/2/5 26/2/5 28/2/5
f 30/2/5 18/2/5 22/2/5
f 30/3/5 22/3/5 29/3/5
f 31/2/5 28/2/5 27/2/5
f 31/2/5 29/2/5 28/2/5
f 31/2/5 30/2/5 29/2/5
f 31/2/5 27/2/5 17/2/5
f 32/2/5 18/2/5 30/2/5
f 32/2/5 30/2/5 31/2/5
f 33/2/6 34/2/6 35/2/6
f 35/2/6 34/2/6 36/2/6
